# xmcd
#
# Track frame offsets:
#	150
#	3121
#	20810
#	35547
#	50725
#	75454
#	90578
#	106920
#	122952
#	144911
#
# Disc length: 2191 seconds
#
# Revision: 0
# Processed by: cddbd v1.5.1PL2 Copyright (c) Steve Scherf et al.
# Submitted via: dBpowerAMP V4.0
#
DISCID=77088d0a
DTITLE=Aleksandra Kovac - Med i mleko
DYEAR=2006
DGENRE=Soul
TTITLE0=01 Intro
TTITLE1=02 Ti
TTITLE2=03 C'mon boy
TTITLE3=04 Lutrija
TTITLE4=05 Nije nam vreme
TTITLE5=06 Da te volim
TTITLE6=07 A.K.'s Black Balls
TTITLE7=08 Love Operator
TTITLE8=09 Nemoj ovako
TTITLE9=10 Ovde ti je dom
EXTD=
EXTT0=
EXTT1=
EXTT2=
EXTT3=
EXTT4=
EXTT5=
EXTT6=
EXTT7=
EXTT8=
EXTT9=
PLAYORDER=
